<svg xmlns="http://www.w3.org/2000/svg" viewBox="0 0 400 200"><defs><linearGradient id="ig" x1="0" y1="1" x2="1" y2="0"><stop offset="0" stop-color="#feda75"/><stop offset=".35" stop-color="#fa7e1e"/><stop offset=".6" stop-color="#d62976"/><stop offset="1" stop-color="#4f5bd5"/></linearGradient></defs><rect width="400" height="200" fill="#0c0b12"/><rect x="14" y="12" width="190" height="176" rx="5" fill="#15141e" stroke="#25232f"/><g stroke="#34313f" stroke-width="1" stroke-dasharray="2 3" fill="none"><path d="M52 72 L112 58 L168 80 L120 130 L60 120 Z"/></g><defs></defs><rect x="146" y="52" width="30" height="30" rx="8" fill="url(#ig)"/><rect x="153" y="59" width="16" height="16" rx="5" fill="none" stroke="#fff" stroke-width="2"/><circle cx="161" cy="67" r="3.5" fill="none" stroke="#fff" stroke-width="2"/><circle cx="166" cy="62" r="1.2" fill="#fff"/><rect x="36" y="56" width="26" height="26" rx="6" fill="#0f0f14" stroke="#3a3747"/><text x="49" y="74" font-family="Arial, Helvetica, sans-serif" font-size="13" font-weight="700" fill="#fff" text-anchor="middle">X</text><rect x="64" y="112" width="30" height="30" rx="8" fill="#1877f2"/><text x="79" y="136" font-family="Arial, Helvetica, sans-serif" font-size="22" font-weight="700" fill="#fff" text-anchor="middle">f</text><circle cx="120" cy="100" r="12" fill="#0f0f14" stroke="#3a3747"/><text x="120" y="105" font-family="Arial, Helvetica, sans-serif" font-size="13" font-weight="700" fill="#fff" text-anchor="middle">@</text><rect x="146" y="122" width="26" height="26" rx="6" fill="#0f0f14" stroke="#3a3747"/><rect x="151" y="128" width="16" height="3" rx="1.5" fill="#d8d4e8" opacity="1"/><rect x="151" y="134" width="16" height="2" rx="1" fill="#6b6880" opacity="1"/><rect x="151" y="139" width="11" height="2" rx="1" fill="#6b6880" opacity="1"/><rect x="24" y="164" width="60" height="3" rx="1.5" fill="#34313f" opacity="1"/><rect x="24" y="172" width="40" height="3" rx="1.5" fill="#34313f" opacity="1"/><rect x="120" y="168" width="70" height="3" rx="1.5" fill="#34313f" opacity="1"/><rect x="212" y="12" width="174" height="176" rx="5" fill="#15141e" stroke="#25232f"/><text x="224" y="46" font-family="Arial, Helvetica, sans-serif" font-size="8" font-weight="400" fill="#b9b5c8" >Erişim</text><text x="376" y="48" font-family="Arial, Helvetica, sans-serif" font-size="17" font-weight="600" fill="#fff" text-anchor="end">2.4M</text><text x="376" y="62" font-family="Arial, Helvetica, sans-serif" font-size="7.5" font-weight="600" fill="#4ade80" text-anchor="end">%+35</text><rect x="224" y="74" width="152" height="0.6" rx="0.3" fill="#2a2836" opacity="1"/><text x="224" y="102" font-family="Arial, Helvetica, sans-serif" font-size="8" font-weight="400" fill="#b9b5c8" >Etkileşim</text><text x="376" y="104" font-family="Arial, Helvetica, sans-serif" font-size="17" font-weight="600" fill="#fff" text-anchor="end">184K</text><text x="376" y="118" font-family="Arial, Helvetica, sans-serif" font-size="7.5" font-weight="600" fill="#4ade80" text-anchor="end">%+42</text><rect x="224" y="130" width="152" height="0.6" rx="0.3" fill="#2a2836" opacity="1"/><text x="224" y="158" font-family="Arial, Helvetica, sans-serif" font-size="8" font-weight="400" fill="#b9b5c8" >Pozitif Duygu</text><text x="376" y="160" font-family="Arial, Helvetica, sans-serif" font-size="17" font-weight="600" fill="#fff" text-anchor="end">%68</text><text x="376" y="174" font-family="Arial, Helvetica, sans-serif" font-size="7.5" font-weight="600" fill="#4ade80" text-anchor="end">%+15</text></svg>
